<svg xmlns="http://www.w3.org/2000/svg" viewBox="0 0 1280 800" font-family="Segoe UI, Arial, sans-serif">
  <!-- Background -->
  <rect width="1280" height="800" fill="#F3F4F6"/>

  <!-- Sidebar -->
  <rect width="220" height="800" fill="#1F2937"/>

  <!-- Sidebar logo -->
  <text x="20" y="40" fill="white" font-size="16" font-weight="bold">🍽  RestaurantOS</text>
  <line x1="0" y1="55" x2="220" y2="55" stroke="#374151" stroke-width="1"/>

  <!-- Sidebar sections -->
  <text x="16" y="80" fill="#9CA3AF" font-size="11">OPERAÇÕES</text>
  <!-- Active: Dashboard -->
  <rect x="8" y="88" width="204" height="34" rx="6" fill="#3B82F6"/>
  <text x="20" y="110" fill="white" font-size="14">📊  Dashboard</text>
  <text x="20" y="138" fill="#D1D5DB" font-size="14">📋  Pedidos</text>
  <text x="20" y="162" fill="#D1D5DB" font-size="14">👨‍🍳  Cozinha</text>
  <text x="20" y="186" fill="#D1D5DB" font-size="14">🪑  Mesas</text>

  <line x1="0" y1="198" x2="220" y2="198" stroke="#374151" stroke-width="1"/>
  <text x="16" y="218" fill="#9CA3AF" font-size="11">GESTÃO</text>
  <text x="20" y="242" fill="#D1D5DB" font-size="14">🍽  Produtos</text>
  <text x="20" y="266" fill="#D1D5DB" font-size="14">👥  Clientes</text>
  <text x="20" y="290" fill="#D1D5DB" font-size="14">💰  Cobranças</text>

  <line x1="0" y1="302" x2="220" y2="302" stroke="#374151" stroke-width="1"/>
  <text x="16" y="322" fill="#9CA3AF" font-size="11">ADMIN</text>
  <text x="20" y="346" fill="#D1D5DB" font-size="14">📈  Relatórios</text>
  <text x="20" y="370" fill="#D1D5DB" font-size="14">⚙️  Configurações</text>

  <line x1="0" y1="770" x2="220" y2="770" stroke="#374151" stroke-width="1"/>
  <text x="20" y="790" fill="#9CA3AF" font-size="13">👤  Admin User</text>

  <!-- Main Content Area -->
  <!-- Title -->
  <text x="256" y="56" fill="#111827" font-size="24" font-weight="bold">Dashboard</text>

  <!-- KPI Row 1 -->
  <!-- Active Orders card -->
  <rect x="244" y="72" width="200" height="90" rx="8" fill="white" stroke="#E5E7EB" stroke-width="1"/>
  <text x="344" y="102" fill="#6B7280" font-size="12" text-anchor="middle">Active Orders</text>
  <text x="344" y="142" fill="#3B82F6" font-size="36" font-weight="bold" text-anchor="middle">5</text>

  <!-- Preparing card -->
  <rect x="460" y="72" width="200" height="90" rx="8" fill="white" stroke="#E5E7EB" stroke-width="1"/>
  <text x="560" y="102" fill="#6B7280" font-size="12" text-anchor="middle">Preparing</text>
  <text x="560" y="142" fill="#F59E0B" font-size="36" font-weight="bold" text-anchor="middle">2</text>

  <!-- Ready card -->
  <rect x="676" y="72" width="200" height="90" rx="8" fill="white" stroke="#E5E7EB" stroke-width="1"/>
  <text x="776" y="102" fill="#6B7280" font-size="12" text-anchor="middle">Ready</text>
  <text x="776" y="142" fill="#10B981" font-size="36" font-weight="bold" text-anchor="middle">1</text>

  <!-- Completed card -->
  <rect x="892" y="72" width="200" height="90" rx="8" fill="white" stroke="#E5E7EB" stroke-width="1"/>
  <text x="992" y="102" fill="#6B7280" font-size="12" text-anchor="middle">Completed</text>
  <text x="992" y="142" fill="#6B7280" font-size="36" font-weight="bold" text-anchor="middle">3</text>

  <!-- Analytics Row -->
  <rect x="244" y="180" width="200" height="80" rx="8" fill="white" stroke="#E5E7EB" stroke-width="1"/>
  <text x="344" y="208" fill="#6B7280" font-size="11" text-anchor="middle">Today Revenue</text>
  <text x="344" y="240" fill="#111827" font-size="22" font-weight="bold" text-anchor="middle">$1,245.00</text>

  <rect x="460" y="180" width="200" height="80" rx="8" fill="white" stroke="#E5E7EB" stroke-width="1"/>
  <text x="560" y="208" fill="#6B7280" font-size="11" text-anchor="middle">Avg Prep Time</text>
  <text x="560" y="240" fill="#111827" font-size="22" font-weight="bold" text-anchor="middle">18.5 min</text>

  <rect x="676" y="180" width="200" height="80" rx="8" fill="white" stroke="#E5E7EB" stroke-width="1"/>
  <text x="776" y="208" fill="#6B7280" font-size="11" text-anchor="middle">Customers</text>
  <text x="776" y="240" fill="#111827" font-size="22" font-weight="bold" text-anchor="middle">42</text>

  <rect x="892" y="180" width="200" height="80" rx="8" fill="white" stroke="#E5E7EB" stroke-width="1"/>
  <text x="992" y="208" fill="#6B7280" font-size="11" text-anchor="middle">Satisfaction</text>
  <text x="992" y="240" fill="#111827" font-size="22" font-weight="bold" text-anchor="middle">94%</text>

  <!-- Table Occupancy Row -->
  <rect x="244" y="278" width="200" height="80" rx="8" fill="white" stroke="#E5E7EB" stroke-width="1"/>
  <text x="344" y="306" fill="#6B7280" font-size="11" text-anchor="middle">Occupied Tables</text>
  <text x="344" y="338" fill="#111827" font-size="22" font-weight="bold" text-anchor="middle">7</text>

  <rect x="460" y="278" width="200" height="80" rx="8" fill="white" stroke="#E5E7EB" stroke-width="1"/>
  <text x="560" y="306" fill="#6B7280" font-size="11" text-anchor="middle">Free Tables</text>
  <text x="560" y="338" fill="#111827" font-size="22" font-weight="bold" text-anchor="middle">3</text>

  <!-- Recent Orders List -->
  <text x="244" y="394" fill="#111827" font-size="16" font-weight="600">Recent Orders</text>
  <rect x="244" y="404" width="980" height="360" rx="8" fill="white" stroke="#E5E7EB" stroke-width="1"/>

  <!-- Order rows -->
  <rect x="244" y="404" width="980" height="40" rx="4" fill="#F9FAFB"/>
  <text x="264" y="429" fill="#374151" font-size="13">Table 3  |  Maria Silva  |  Preparing  |  14:32  |  $47.50</text>

  <text x="264" y="469" fill="#374151" font-size="13">Table 1  |  João Costa  |  Ready  |  14:15  |  $62.00</text>
  <line x1="244" y1="478" x2="1224" y2="478" stroke="#F3F4F6" stroke-width="1"/>

  <text x="264" y="508" fill="#374151" font-size="13">Table 5  |  Ana Lima  |  New  |  14:41  |  $35.00</text>
  <line x1="244" y1="518" x2="1224" y2="518" stroke="#F3F4F6" stroke-width="1"/>

  <text x="264" y="548" fill="#374151" font-size="13">Table 8  |  Pedro Alves  |  Completed  |  13:50  |  $88.50</text>
  <line x1="244" y1="558" x2="1224" y2="558" stroke="#F3F4F6" stroke-width="1"/>

  <text x="264" y="588" fill="#374151" font-size="13">Table 2  |  Clara Santos  |  Completed  |  13:20  |  $55.00</text>
</svg>
