<svg xmlns="http://www.w3.org/2000/svg" viewBox="0 0 1280 800" font-family="Segoe UI, Arial, sans-serif">
  <!-- Background -->
  <rect width="1280" height="800" fill="#F3F4F6"/>

  <!-- Sidebar -->
  <rect width="220" height="800" fill="#1F2937"/>
  <text x="20" y="40" fill="white" font-size="16" font-weight="bold">🍽  RestaurantOS</text>
  <line x1="0" y1="55" x2="220" y2="55" stroke="#374151" stroke-width="1"/>
  <text x="16" y="80" fill="#9CA3AF" font-size="11">OPERAÇÕES</text>
  <text x="20" y="110" fill="#D1D5DB" font-size="14">📊  Dashboard</text>
  <!-- Active: Orders -->
  <rect x="8" y="120" width="204" height="34" rx="6" fill="#3B82F6"/>
  <text x="20" y="142" fill="white" font-size="14">📋  Pedidos</text>
  <text x="20" y="166" fill="#D1D5DB" font-size="14">👨‍🍳  Cozinha</text>
  <text x="20" y="190" fill="#D1D5DB" font-size="14">🪑  Mesas</text>
  <line x1="0" y1="202" x2="220" y2="202" stroke="#374151" stroke-width="1"/>
  <text x="16" y="222" fill="#9CA3AF" font-size="11">GESTÃO</text>
  <text x="20" y="246" fill="#D1D5DB" font-size="14">🍽  Produtos</text>
  <text x="20" y="270" fill="#D1D5DB" font-size="14">👥  Clientes</text>
  <text x="20" y="294" fill="#D1D5DB" font-size="14">💰  Cobranças</text>
  <line x1="0" y1="306" x2="220" y2="306" stroke="#374151" stroke-width="1"/>
  <text x="16" y="326" fill="#9CA3AF" font-size="11">ADMIN</text>
  <text x="20" y="350" fill="#D1D5DB" font-size="14">📈  Relatórios</text>
  <text x="20" y="374" fill="#D1D5DB" font-size="14">⚙️  Configurações</text>
  <line x1="0" y1="770" x2="220" y2="770" stroke="#374151" stroke-width="1"/>
  <text x="20" y="790" fill="#9CA3AF" font-size="13">👤  Admin User</text>

  <!-- Left Panel (Order List) -->
  <rect x="220" y="0" width="310" height="800" fill="white" stroke="#E5E7EB" stroke-width="1"/>
  <text x="240" y="36" fill="#111827" font-size="16" font-weight="600">Orders</text>

  <!-- Search field -->
  <rect x="232" y="48" width="286" height="32" rx="6" fill="#F9FAFB" stroke="#D1D5DB" stroke-width="1"/>
  <text x="248" y="69" fill="#9CA3AF" font-size="13">Search orders...</text>

  <!-- Status filter -->
  <rect x="232" y="88" width="286" height="32" rx="6" fill="#F9FAFB" stroke="#D1D5DB" stroke-width="1"/>
  <text x="248" y="109" fill="#374151" font-size="13">All</text>
  <text x="500" y="109" fill="#9CA3AF" font-size="14">▼</text>

  <!-- New Order btn -->
  <rect x="232" y="128" width="286" height="34" rx="6" fill="#3B82F6"/>
  <text x="375" y="150" fill="white" font-size="13" font-weight="bold" text-anchor="middle">+ New Order</text>

  <!-- Order list items -->
  <rect x="232" y="172" width="286" height="56" rx="4" fill="#EFF6FF" stroke="#BFDBFE" stroke-width="1"/>
  <text x="248" y="194" fill="#1D4ED8" font-size="13" font-weight="bold">#ORD-001  Mesa 3</text>
  <text x="248" y="214" fill="#6B7280" font-size="12">Maria Silva  |  Preparing  |  $47.50</text>

  <line x1="232" y1="228" x2="518" y2="228" stroke="#F3F4F6" stroke-width="1"/>
  <text x="248" y="250" fill="#111827" font-size="13" font-weight="bold">#ORD-002  Mesa 1</text>
  <text x="248" y="270" fill="#6B7280" font-size="12">João Costa  |  Ready  |  $62.00</text>

  <line x1="232" y1="284" x2="518" y2="284" stroke="#F3F4F6" stroke-width="1"/>
  <text x="248" y="306" fill="#111827" font-size="13" font-weight="bold">#ORD-003  Mesa 5</text>
  <text x="248" y="326" fill="#6B7280" font-size="12">Ana Lima  |  New  |  $35.00</text>

  <line x1="232" y1="340" x2="518" y2="340" stroke="#F3F4F6" stroke-width="1"/>
  <text x="248" y="362" fill="#111827" font-size="13" font-weight="bold">#ORD-004  Mesa 8</text>
  <text x="248" y="382" fill="#6B7280" font-size="12">Pedro Alves  |  Completed  |  $88.50</text>

  <line x1="232" y1="396" x2="518" y2="396" stroke="#F3F4F6" stroke-width="1"/>
  <text x="248" y="418" fill="#111827" font-size="13" font-weight="bold">#ORD-005  Mesa 2</text>
  <text x="248" y="438" fill="#6B7280" font-size="12">Clara Santos  |  Completed  |  $55.00</text>

  <!-- Center Panel (Order Detail) -->
  <rect x="530" y="0" width="490" height="800" fill="white" stroke="#E5E7EB" stroke-width="1"/>
  <text x="550" y="36" fill="#111827" font-size="18" font-weight="bold">Order ORD-001</text>

  <text x="550" y="72" fill="#374151" font-size="13">Table: 3  |  Client: Maria Silva  |  Waiter: Jean</text>
  <text x="550" y="96" fill="#374151" font-size="13">Status: Preparing  |  Priority: Normal</text>
  <text x="550" y="120" fill="#374151" font-size="13">Created: 14:32 15/03  |  Est. Prep: 20 min</text>
  <text x="550" y="144" fill="#374151" font-size="13">Special: None</text>

  <!-- Status buttons -->
  <text x="550" y="178" fill="#374151" font-size="13">Change Status:</text>
  <rect x="550" y="188" width="60" height="28" rx="4" fill="#F3F4F6" stroke="#D1D5DB" stroke-width="1"/>
  <text x="580" y="207" fill="#374151" font-size="12" text-anchor="middle">New</text>
  <rect x="618" y="188" width="60" height="28" rx="4" fill="#F3F4F6" stroke="#D1D5DB" stroke-width="1"/>
  <text x="648" y="207" fill="#374151" font-size="12" text-anchor="middle">Sent</text>
  <rect x="686" y="188" width="60" height="28" rx="4" fill="#F3F4F6" stroke="#D1D5DB" stroke-width="1"/>
  <text x="716" y="207" fill="#374151" font-size="12" text-anchor="middle">Ready</text>
  <rect x="754" y="188" width="65" height="28" rx="4" fill="#F3F4F6" stroke="#D1D5DB" stroke-width="1"/>
  <text x="786" y="207" fill="#374151" font-size="12" text-anchor="middle">Served</text>
  <rect x="827" y="188" width="80" height="28" rx="4" fill="#F3F4F6" stroke="#D1D5DB" stroke-width="1"/>
  <text x="867" y="207" fill="#374151" font-size="12" text-anchor="middle">Completed</text>

  <!-- Priority -->
  <text x="550" y="244" fill="#374151" font-size="13">Priority:</text>
  <rect x="618" y="230" width="70" height="28" rx="4" fill="#3B82F6"/>
  <text x="653" y="249" fill="white" font-size="12" text-anchor="middle">Normal</text>
  <rect x="696" y="230" width="60" height="28" rx="4" fill="#F3F4F6" stroke="#D1D5DB" stroke-width="1"/>
  <text x="726" y="249" fill="#374151" font-size="12" text-anchor="middle">High</text>
  <rect x="764" y="230" width="70" height="28" rx="4" fill="#F3F4F6" stroke="#D1D5DB" stroke-width="1"/>
  <text x="799" y="249" fill="#374151" font-size="12" text-anchor="middle">Critical</text>

  <!-- Items table header -->
  <text x="550" y="290" fill="#111827" font-size="15" font-weight="600">Items</text>
  <rect x="530" y="300" width="490" height="32" fill="#F9FAFB"/>
  <text x="548" y="321" fill="#374151" font-size="12" font-weight="bold">Product</text>
  <text x="720" y="321" fill="#374151" font-size="12" font-weight="bold">Qty</text>
  <text x="760" y="321" fill="#374151" font-size="12" font-weight="bold">Price</text>
  <text x="820" y="321" fill="#374151" font-size="12" font-weight="bold">Status</text>
  <text x="900" y="321" fill="#374151" font-size="12" font-weight="bold">Notes</text>

  <line x1="530" y1="332" x2="1020" y2="332" stroke="#E5E7EB" stroke-width="1"/>
  <text x="548" y="354" fill="#374151" font-size="13">🍕 Pizza Margherita</text>
  <text x="720" y="354" fill="#374151" font-size="13">1</text>
  <text x="760" y="354" fill="#374151" font-size="13">$18.00</text>
  <text x="820" y="354" fill="#6B7280" font-size="12">Pending</text>
  <text x="900" y="354" fill="#6B7280" font-size="12">—</text>
  <rect x="985" y="340" width="24" height="22" rx="3" fill="#FEE2E2" stroke="#FCA5A5" stroke-width="1"/>
  <text x="997" y="356" fill="#EF4444" font-size="12" text-anchor="middle">X</text>

  <line x1="530" y1="366" x2="1020" y2="366" stroke="#F3F4F6" stroke-width="1"/>
  <text x="548" y="388" fill="#374151" font-size="13">🥤 Suco de Laranja</text>
  <text x="720" y="388" fill="#374151" font-size="13">2</text>
  <text x="760" y="388" fill="#374151" font-size="13">$6.00</text>
  <text x="820" y="388" fill="#6B7280" font-size="12">Pending</text>
  <text x="900" y="388" fill="#6B7280" font-size="12">gelado</text>
  <rect x="985" y="374" width="24" height="22" rx="3" fill="#FEE2E2" stroke="#FCA5A5" stroke-width="1"/>
  <text x="997" y="390" fill="#EF4444" font-size="12" text-anchor="middle">X</text>

  <text x="550" y="428" fill="#111827" font-size="15" font-weight="bold">Total: $30.00</text>

  <!-- Right Panel (Add Items) -->
  <rect x="1020" y="0" width="260" height="800" fill="white" stroke="#E5E7EB" stroke-width="1"/>
  <text x="1038" y="36" fill="#111827" font-size="15" font-weight="600">Add Items</text>

  <!-- Product buttons -->
  <rect x="1030" y="48" width="230" height="36" rx="6" fill="#F9FAFB" stroke="#D1D5DB" stroke-width="1"/>
  <text x="1045" y="71" fill="#374151" font-size="13">🍕 Pizza Margherita - $18.00</text>

  <rect x="1030" y="92" width="230" height="36" rx="6" fill="#F9FAFB" stroke="#D1D5DB" stroke-width="1"/>
  <text x="1045" y="115" fill="#374151" font-size="13">🍔 Hambúrguer - $15.00</text>

  <rect x="1030" y="136" width="230" height="36" rx="6" fill="#F9FAFB" stroke="#D1D5DB" stroke-width="1"/>
  <text x="1045" y="159" fill="#374151" font-size="13">🥗 Salada César - $12.00</text>

  <rect x="1030" y="180" width="230" height="36" rx="6" fill="#F9FAFB" stroke="#D1D5DB" stroke-width="1"/>
  <text x="1045" y="203" fill="#374151" font-size="13">🥤 Suco de Laranja - $3.00</text>

  <rect x="1030" y="224" width="230" height="36" rx="6" fill="#F9FAFB" stroke="#D1D5DB" stroke-width="1"/>
  <text x="1045" y="247" fill="#374151" font-size="13">☕ Café Espresso - $4.50</text>

  <rect x="1030" y="268" width="230" height="36" rx="6" fill="#F9FAFB" stroke="#D1D5DB" stroke-width="1"/>
  <text x="1045" y="291" fill="#374151" font-size="13">🍰 Petit Gateau - $9.00</text>

  <rect x="1030" y="312" width="230" height="36" rx="6" fill="#F9FAFB" stroke="#D1D5DB" stroke-width="1"/>
  <text x="1045" y="335" fill="#374151" font-size="13">🍷 Vinho Tinto - $22.00</text>
</svg>
