<svg xmlns="http://www.w3.org/2000/svg" viewBox="0 0 1280 800" font-family="Segoe UI, Arial, sans-serif">
  <!-- Background -->
  <rect width="1280" height="800" fill="#F3F4F6"/>

  <!-- Sidebar -->
  <rect width="220" height="800" fill="#1F2937"/>
  <text x="20" y="40" fill="white" font-size="16" font-weight="bold">🍽  RestaurantOS</text>
  <line x1="0" y1="55" x2="220" y2="55" stroke="#374151" stroke-width="1"/>
  <text x="16" y="80" fill="#9CA3AF" font-size="11">OPERAÇÕES</text>
  <text x="20" y="110" fill="#D1D5DB" font-size="14">📊  Dashboard</text>
  <text x="20" y="138" fill="#D1D5DB" font-size="14">📋  Pedidos</text>
  <text x="20" y="166" fill="#D1D5DB" font-size="14">👨‍🍳  Cozinha</text>
  <rect x="8" y="176" width="204" height="34" rx="6" fill="#3B82F6"/>
  <text x="20" y="198" fill="white" font-size="14">🪑  Mesas</text>
  <line x1="0" y1="210" x2="220" y2="210" stroke="#374151" stroke-width="1"/>
  <text x="20" y="790" fill="#9CA3AF" font-size="13">👤  Admin User</text>

  <!-- Title -->
  <text x="250" y="52" fill="#111827" font-size="22" font-weight="bold">Tables</text>

  <!-- Table Cards Grid -->
  <!-- Table 1 - FREE (green) -->
  <rect x="242" y="68" width="155" height="120" rx="8" fill="white" stroke="#10B981" stroke-width="3"/>
  <text x="320" y="100" fill="#111827" font-size="16" font-weight="bold" text-anchor="middle">Table 1</text>
  <rect x="272" y="110" width="96" height="22" rx="4" fill="#10B981"/>
  <text x="320" y="126" fill="white" font-size="12" text-anchor="middle">FREE</text>
  <text x="320" y="166" fill="#6B7280" font-size="12" text-anchor="middle">0/4 seats</text>

  <!-- Table 2 - OCCUPIED (blue) -->
  <rect x="413" y="68" width="155" height="120" rx="8" fill="white" stroke="#3B82F6" stroke-width="3"/>
  <text x="491" y="100" fill="#111827" font-size="16" font-weight="bold" text-anchor="middle">Table 2</text>
  <rect x="441" y="110" width="100" height="22" rx="4" fill="#3B82F6"/>
  <text x="491" y="126" fill="white" font-size="12" text-anchor="middle">OCCUPIED</text>
  <text x="491" y="166" fill="#6B7280" font-size="12" text-anchor="middle">4/4 seats</text>

  <!-- Table 3 - ORDERING (amber) -->
  <rect x="584" y="68" width="155" height="120" rx="8" fill="white" stroke="#F59E0B" stroke-width="3"/>
  <text x="662" y="100" fill="#111827" font-size="16" font-weight="bold" text-anchor="middle">Table 3</text>
  <rect x="607" y="110" width="110" height="22" rx="4" fill="#F59E0B"/>
  <text x="662" y="126" fill="white" font-size="12" text-anchor="middle">ORDERING</text>
  <text x="662" y="166" fill="#6B7280" font-size="12" text-anchor="middle">3/4 seats</text>

  <!-- Table 4 - WAITING (purple) -->
  <rect x="755" y="68" width="155" height="120" rx="8" fill="white" stroke="#8B5CF6" stroke-width="3"/>
  <text x="833" y="100" fill="#111827" font-size="16" font-weight="bold" text-anchor="middle">Table 4</text>
  <rect x="780" y="110" width="106" height="22" rx="4" fill="#8B5CF6"/>
  <text x="833" y="126" fill="white" font-size="12" text-anchor="middle">WAITING</text>
  <text x="833" y="166" fill="#6B7280" font-size="12" text-anchor="middle">2/6 seats</text>

  <!-- Table 5 - PAY (red) -->
  <rect x="926" y="68" width="155" height="120" rx="8" fill="white" stroke="#EF4444" stroke-width="3"/>
  <text x="1004" y="100" fill="#111827" font-size="16" font-weight="bold" text-anchor="middle">Table 5</text>
  <rect x="956" y="110" width="96" height="22" rx="4" fill="#EF4444"/>
  <text x="1004" y="126" fill="white" font-size="12" text-anchor="middle">PAY</text>
  <text x="1004" y="166" fill="#6B7280" font-size="12" text-anchor="middle">3/4 seats</text>

  <!-- Row 2 -->
  <rect x="242" y="208" width="155" height="120" rx="8" fill="white" stroke="#10B981" stroke-width="3"/>
  <text x="320" y="240" fill="#111827" font-size="16" font-weight="bold" text-anchor="middle">Table 6</text>
  <rect x="272" y="250" width="96" height="22" rx="4" fill="#10B981"/>
  <text x="320" y="266" fill="white" font-size="12" text-anchor="middle">FREE</text>
  <text x="320" y="306" fill="#6B7280" font-size="12" text-anchor="middle">0/4 seats</text>

  <rect x="413" y="208" width="155" height="120" rx="8" fill="white" stroke="#3B82F6" stroke-width="3"/>
  <text x="491" y="240" fill="#111827" font-size="16" font-weight="bold" text-anchor="middle">Table 7</text>
  <rect x="441" y="250" width="100" height="22" rx="4" fill="#3B82F6"/>
  <text x="491" y="266" fill="white" font-size="12" text-anchor="middle">OCCUPIED</text>
  <text x="491" y="306" fill="#6B7280" font-size="12" text-anchor="middle">2/4 seats</text>

  <rect x="584" y="208" width="155" height="120" rx="8" fill="white" stroke="#8B5CF6" stroke-width="3"/>
  <text x="662" y="240" fill="#111827" font-size="16" font-weight="bold" text-anchor="middle">Table 8</text>
  <rect x="607" y="250" width="110" height="22" rx="4" fill="#8B5CF6"/>
  <text x="662" y="266" fill="white" font-size="12" text-anchor="middle">WAITING</text>
  <text x="662" y="306" fill="#6B7280" font-size="12" text-anchor="middle">4/6 seats</text>

  <rect x="755" y="208" width="155" height="120" rx="8" fill="white" stroke="#10B981" stroke-width="3"/>
  <text x="833" y="240" fill="#111827" font-size="16" font-weight="bold" text-anchor="middle">Table 9</text>
  <rect x="780" y="250" width="96" height="22" rx="4" fill="#10B981"/>
  <text x="833" y="266" fill="white" font-size="12" text-anchor="middle">FREE</text>
  <text x="833" y="306" fill="#6B7280" font-size="12" text-anchor="middle">0/4 seats</text>

  <rect x="926" y="208" width="155" height="120" rx="8" fill="white" stroke="#EF4444" stroke-width="3"/>
  <text x="1004" y="240" fill="#111827" font-size="16" font-weight="bold" text-anchor="middle">Table 10</text>
  <rect x="956" y="250" width="96" height="22" rx="4" fill="#EF4444"/>
  <text x="1004" y="266" fill="white" font-size="12" text-anchor="middle">PAY</text>
  <text x="1004" y="306" fill="#6B7280" font-size="12" text-anchor="middle">5/6 seats</text>

  <!-- Side Panel (for Table 3 details) -->
  <rect x="1100" y="0" width="180" height="800" fill="white" stroke="#E5E7EB" stroke-width="1"/>
  <text x="1116" y="36" fill="#111827" font-size="15" font-weight="bold">Table 3</text>
  <text x="1116" y="60" fill="#374151" font-size="12">Status: Ordering</text>
  <text x="1116" y="80" fill="#374151" font-size="12">Seats: 4  |  Guests: 3</text>
  <text x="1116" y="100" fill="#374151" font-size="12">Occupied: 22 min ago</text>
  <text x="1116" y="130" fill="#374151" font-size="12">Order: ORD-003</text>
  <text x="1116" y="150" fill="#374151" font-size="12">Client: Ana Lima</text>
  <text x="1116" y="170" fill="#374151" font-size="12">Total: $35.00</text>
  <text x="1116" y="200" fill="#111827" font-size="12" font-weight="bold">Change Status:</text>
  <rect x="1110" y="210" width="76" height="26" rx="4" fill="#F3F4F6" stroke="#D1D5DB" stroke-width="1"/>
  <text x="1148" y="228" fill="#374151" font-size="11" text-anchor="middle">Free</text>
  <rect x="1194" y="210" width="76" height="26" rx="4" fill="#F3F4F6" stroke="#D1D5DB" stroke-width="1"/>
  <text x="1232" y="228" fill="#374151" font-size="11" text-anchor="middle">Occupied</text>
  <rect x="1110" y="244" width="76" height="26" rx="4" fill="#3B82F6"/>
  <text x="1148" y="262" fill="white" font-size="11" text-anchor="middle">Ordering</text>
  <rect x="1194" y="244" width="76" height="26" rx="4" fill="#F3F4F6" stroke="#D1D5DB" stroke-width="1"/>
  <text x="1232" y="262" fill="#374151" font-size="11" text-anchor="middle">Waiting</text>
  <rect x="1110" y="278" width="76" height="26" rx="4" fill="#F3F4F6" stroke="#D1D5DB" stroke-width="1"/>
  <text x="1148" y="296" fill="#374151" font-size="11" text-anchor="middle">Pay</text>
</svg>
