<svg xmlns="http://www.w3.org/2000/svg" viewBox="0 0 1280 800" font-family="Segoe UI, Arial, sans-serif">
  <!-- Background -->
  <rect width="1280" height="800" fill="#F3F4F6"/>

  <!-- Sidebar -->
  <rect width="220" height="800" fill="#1F2937"/>
  <text x="20" y="40" fill="white" font-size="16" font-weight="bold">🍽  RestaurantOS</text>
  <line x1="0" y1="55" x2="220" y2="55" stroke="#374151" stroke-width="1"/>
  <text x="16" y="80" fill="#9CA3AF" font-size="11">GESTÃO</text>
  <text x="20" y="110" fill="#D1D5DB" font-size="14">🍽  Produtos</text>
  <rect x="8" y="120" width="204" height="34" rx="6" fill="#3B82F6"/>
  <text x="20" y="142" fill="white" font-size="14">👥  Clientes</text>
  <text x="20" y="170" fill="#D1D5DB" font-size="14">💰  Cobranças</text>
  <text x="20" y="790" fill="#9CA3AF" font-size="13">👤  Admin User</text>

  <!-- Main Content -->
  <text x="250" y="52" fill="#111827" font-size="22" font-weight="bold">Clients</text>

  <!-- Search -->
  <rect x="240" y="64" width="720" height="32" rx="6" fill="white" stroke="#D1D5DB" stroke-width="1"/>
  <text x="258" y="85" fill="#9CA3AF" font-size="13">Search clients...</text>

  <!-- Table header -->
  <rect x="240" y="106" width="720" height="36" rx="4" fill="#F9FAFB" stroke="#E5E7EB" stroke-width="1"/>
  <text x="258" y="130" fill="#374151" font-size="12" font-weight="bold">Name</text>
  <text x="390" y="130" fill="#374151" font-size="12" font-weight="bold">Phone</text>
  <text x="520" y="130" fill="#374151" font-size="12" font-weight="bold">Email</text>
  <text x="660" y="130" fill="#374151" font-size="12" font-weight="bold">Visits</text>
  <text x="710" y="130" fill="#374151" font-size="12" font-weight="bold">Tier</text>
  <text x="780" y="130" fill="#374151" font-size="12" font-weight="bold">VIP</text>
  <text x="830" y="130" fill="#374151" font-size="12" font-weight="bold">Spending</text>

  <!-- Row 1 - VIP Gold -->
  <line x1="240" y1="142" x2="960" y2="142" stroke="#E5E7EB" stroke-width="1"/>
  <text x="258" y="166" fill="#111827" font-size="13">Maria Silva</text>
  <text x="390" y="166" fill="#374151" font-size="13">+55 11 99999-0001</text>
  <text x="520" y="166" fill="#374151" font-size="13">maria@email.com</text>
  <text x="665" y="166" fill="#374151" font-size="13">12</text>
  <text x="710" y="166" fill="#F59E0B" font-size="13" font-weight="bold">Gold</text>
  <text x="780" y="166" fill="#F59E0B" font-size="13">⭐ VIP</text>
  <text x="830" y="166" fill="#111827" font-size="13">$1,247.50</text>

  <!-- Row 2 -->
  <line x1="240" y1="178" x2="960" y2="178" stroke="#F3F4F6" stroke-width="1"/>
  <text x="258" y="202" fill="#111827" font-size="13">João Costa</text>
  <text x="390" y="202" fill="#374151" font-size="13">+55 11 99999-0002</text>
  <text x="520" y="202" fill="#374151" font-size="13">joao@email.com</text>
  <text x="665" y="202" fill="#374151" font-size="13">7</text>
  <text x="710" y="202" fill="#6B7280" font-size="13">Silver</text>
  <text x="830" y="202" fill="#111827" font-size="13">$620.00</text>

  <!-- Row 3 -->
  <line x1="240" y1="214" x2="960" y2="214" stroke="#F3F4F6" stroke-width="1"/>
  <text x="258" y="238" fill="#111827" font-size="13">Ana Lima</text>
  <text x="390" y="238" fill="#374151" font-size="13">+55 11 99999-0003</text>
  <text x="520" y="238" fill="#374151" font-size="13">ana@email.com</text>
  <text x="665" y="238" fill="#374151" font-size="13">4</text>
  <text x="710" y="238" fill="#CD7F32" font-size="13">Bronze</text>
  <text x="830" y="238" fill="#111827" font-size="13">$215.00</text>

  <!-- Row 4 - VIP -->
  <line x1="240" y1="250" x2="960" y2="250" stroke="#F3F4F6" stroke-width="1"/>
  <text x="258" y="274" fill="#111827" font-size="13">Pedro Alves</text>
  <text x="390" y="274" fill="#374151" font-size="13">+55 11 99999-0004</text>
  <text x="520" y="274" fill="#374151" font-size="13">pedro@email.com</text>
  <text x="665" y="274" fill="#374151" font-size="13">18</text>
  <text x="710" y="274" fill="#F59E0B" font-size="13" font-weight="bold">Gold</text>
  <text x="780" y="274" fill="#F59E0B" font-size="13">⭐ VIP</text>
  <text x="830" y="274" fill="#111827" font-size="13">$2,180.00</text>

  <!-- Side Panel -->
  <rect x="980" y="0" width="300" height="800" fill="white" stroke="#E5E7EB" stroke-width="1"/>
  <text x="998" y="36" fill="#111827" font-size="18" font-weight="bold">Maria Silva</text>
  <text x="998" y="60" fill="#F59E0B" font-size="13" font-weight="bold">⭐ VIP Client</text>
  <text x="998" y="84" fill="#111827" font-size="13" font-weight="bold">Loyalty: Gold</text>
  <text x="998" y="108" fill="#374151" font-size="13">📞 +55 11 99999-0001</text>
  <text x="998" y="132" fill="#374151" font-size="13">✉  maria@email.com</text>
  <text x="998" y="156" fill="#374151" font-size="13">Visits: 12</text>
  <text x="998" y="180" fill="#374151" font-size="13">Total Spending: $1,247.50</text>
  <text x="998" y="204" fill="#374151" font-size="13">Last Order: 15/03/2025 14:32</text>
  <text x="998" y="234" fill="#6B7280" font-size="12">Spending:</text>
  <rect x="998" y="244" width="260" height="14" rx="4" fill="#E5E7EB"/>
  <rect x="998" y="244" width="182" height="14" rx="4" fill="#3B82F6"/>
</svg>
