<svg xmlns="http://www.w3.org/2000/svg" viewBox="0 0 1280 800" font-family="Segoe UI, Arial, sans-serif">
  <!-- Background -->
  <rect width="1280" height="800" fill="#F3F4F6"/>

  <!-- Sidebar -->
  <rect width="220" height="800" fill="#1F2937"/>
  <text x="20" y="40" fill="white" font-size="16" font-weight="bold">🍽  RestaurantOS</text>
  <line x1="0" y1="55" x2="220" y2="55" stroke="#374151" stroke-width="1"/>
  <text x="16" y="80" fill="#9CA3AF" font-size="11">GESTÃO</text>
  <text x="20" y="110" fill="#D1D5DB" font-size="14">🍽  Produtos</text>
  <text x="20" y="138" fill="#D1D5DB" font-size="14">👥  Clientes</text>
  <rect x="8" y="148" width="204" height="34" rx="6" fill="#3B82F6"/>
  <text x="20" y="170" fill="white" font-size="14">💰  Cobranças</text>
  <text x="20" y="790" fill="#9CA3AF" font-size="13">👤  Admin User</text>

  <!-- Main Content -->
  <text x="250" y="52" fill="#111827" font-size="22" font-weight="bold">Bills</text>

  <!-- Summary cards -->
  <rect x="240" y="64" width="190" height="80" rx="8" fill="white" stroke="#E5E7EB" stroke-width="1"/>
  <text x="335" y="94" fill="#6B7280" font-size="11" text-anchor="middle">Total Revenue</text>
  <text x="335" y="128" fill="#111827" font-size="22" font-weight="bold" text-anchor="middle">$3,847.50</text>

  <rect x="446" y="64" width="190" height="80" rx="8" fill="white" stroke="#E5E7EB" stroke-width="1"/>
  <text x="541" y="94" fill="#6B7280" font-size="11" text-anchor="middle">Pending</text>
  <text x="541" y="128" fill="#F59E0B" font-size="22" font-weight="bold" text-anchor="middle">3</text>

  <rect x="652" y="64" width="190" height="80" rx="8" fill="white" stroke="#E5E7EB" stroke-width="1"/>
  <text x="747" y="94" fill="#6B7280" font-size="11" text-anchor="middle">Paid</text>
  <text x="747" y="128" fill="#10B981" font-size="22" font-weight="bold" text-anchor="middle">8</text>

  <!-- Filter -->
  <rect x="240" y="158" width="200" height="30" rx="4" fill="white" stroke="#D1D5DB" stroke-width="1"/>
  <text x="258" y="178" fill="#374151" font-size="13">All</text>
  <text x="424" y="178" fill="#9CA3AF" font-size="14">▼</text>

  <!-- Table header -->
  <rect x="240" y="198" width="700" height="36" rx="4" fill="#F9FAFB" stroke="#E5E7EB" stroke-width="1"/>
  <text x="258" y="222" fill="#374151" font-size="12" font-weight="bold">ID</text>
  <text x="320" y="222" fill="#374151" font-size="12" font-weight="bold">Table</text>
  <text x="380" y="222" fill="#374151" font-size="12" font-weight="bold">Client</text>
  <text x="550" y="222" fill="#374151" font-size="12" font-weight="bold">Total</text>
  <text x="620" y="222" fill="#374151" font-size="12" font-weight="bold">Payment</text>
  <text x="720" y="222" fill="#374151" font-size="12" font-weight="bold">Status</text>
  <text x="820" y="222" fill="#374151" font-size="12" font-weight="bold">Date</text>

  <!-- Row 1 - Paid -->
  <line x1="240" y1="234" x2="940" y2="234" stroke="#E5E7EB" stroke-width="1"/>
  <text x="258" y="258" fill="#374151" font-size="13">BIL-001</text>
  <text x="320" y="258" fill="#374151" font-size="13">3</text>
  <text x="380" y="258" fill="#111827" font-size="13">Maria Silva</text>
  <text x="550" y="258" fill="#111827" font-size="13">$47.50</text>
  <text x="620" y="258" fill="#374151" font-size="13">Credit Card</text>
  <text x="720" y="258" fill="#10B981" font-size="13" font-weight="bold">Paid</text>
  <text x="820" y="258" fill="#6B7280" font-size="12">15:20 15/03</text>

  <!-- Row 2 - Pending -->
  <line x1="240" y1="270" x2="940" y2="270" stroke="#F3F4F6" stroke-width="1"/>
  <text x="258" y="294" fill="#374151" font-size="13">BIL-002</text>
  <text x="320" y="294" fill="#374151" font-size="13">1</text>
  <text x="380" y="294" fill="#111827" font-size="13">João Costa</text>
  <text x="550" y="294" fill="#111827" font-size="13">$62.00</text>
  <text x="620" y="294" fill="#9CA3AF" font-size="13">—</text>
  <text x="720" y="294" fill="#F59E0B" font-size="13" font-weight="bold">Pending</text>
  <text x="820" y="294" fill="#6B7280" font-size="12">15:45 15/03</text>

  <!-- Row 3 - Paid -->
  <line x1="240" y1="306" x2="940" y2="306" stroke="#F3F4F6" stroke-width="1"/>
  <text x="258" y="330" fill="#374151" font-size="13">BIL-003</text>
  <text x="320" y="330" fill="#374151" font-size="13">8</text>
  <text x="380" y="330" fill="#111827" font-size="13">Pedro Alves</text>
  <text x="550" y="330" fill="#111827" font-size="13">$88.50</text>
  <text x="620" y="330" fill="#374151" font-size="13">PIX</text>
  <text x="720" y="330" fill="#10B981" font-size="13" font-weight="bold">Paid</text>
  <text x="820" y="330" fill="#6B7280" font-size="12">14:55 15/03</text>

  <!-- Row 4 - Cancelled -->
  <line x1="240" y1="342" x2="940" y2="342" stroke="#F3F4F6" stroke-width="1"/>
  <text x="258" y="366" fill="#374151" font-size="13">BIL-004</text>
  <text x="320" y="366" fill="#374151" font-size="13">6</text>
  <text x="380" y="366" fill="#111827" font-size="13">Clara Santos</text>
  <text x="550" y="366" fill="#111827" font-size="13">$55.00</text>
  <text x="620" y="366" fill="#9CA3AF" font-size="13">—</text>
  <text x="720" y="366" fill="#EF4444" font-size="13" font-weight="bold">Cancelled</text>
  <text x="820" y="366" fill="#6B7280" font-size="12">14:10 15/03</text>

  <!-- Side Panel (BIL-002 selected) -->
  <rect x="960" y="0" width="320" height="800" fill="white" stroke="#E5E7EB" stroke-width="1"/>
  <text x="978" y="36" fill="#111827" font-size="16" font-weight="bold">Bill BIL-002</text>
  <text x="978" y="62" fill="#374151" font-size="13">Table: 1</text>
  <text x="978" y="84" fill="#374151" font-size="13">Client: João Costa</text>
  <text x="978" y="106" fill="#374151" font-size="13">Order: ORD-002</text>
  <text x="978" y="128" fill="#111827" font-size="14" font-weight="bold">Total: $62.00</text>
  <text x="978" y="150" fill="#374151" font-size="13">Payment: N/A</text>
  <text x="978" y="172" fill="#F59E0B" font-size="13" font-weight="bold">Status: Pending</text>
  <text x="978" y="194" fill="#374151" font-size="13">Date: 15/03/2025 15:45</text>

  <text x="978" y="224" fill="#111827" font-size="13" font-weight="bold">Actions:</text>

  <rect x="978" y="234" width="280" height="34" rx="6" fill="#3B82F6"/>
  <text x="1118" y="256" fill="white" font-size="13" text-anchor="middle">Pay with Cash</text>

  <rect x="978" y="276" width="280" height="34" rx="6" fill="#3B82F6"/>
  <text x="1118" y="298" fill="white" font-size="13" text-anchor="middle">Pay with Credit Card</text>

  <rect x="978" y="318" width="280" height="34" rx="6" fill="#3B82F6"/>
  <text x="1118" y="340" fill="white" font-size="13" text-anchor="middle">Pay with Debit Card</text>

  <rect x="978" y="360" width="280" height="34" rx="6" fill="#3B82F6"/>
  <text x="1118" y="382" fill="white" font-size="13" text-anchor="middle">Pay with PIX</text>

  <rect x="978" y="410" width="280" height="34" rx="6" fill="#EF4444"/>
  <text x="1118" y="432" fill="white" font-size="13" text-anchor="middle">Cancel Bill</text>
</svg>
